<svg xmlns="http://www.w3.org/2000/svg" viewBox="0 0 428.11 145.33"><defs><style>.cls-1{fill:#ff8c00;}</style></defs><title>logo-dk</title><g id="Layer_2" data-name="Layer 2"><g id="Layer_1-2" data-name="Layer 1"><path class="cls-1" d="M52.45,0,0,19.7V32.48l38.11-14V145.33H53V0Z"/><path d="M86.36,56V7h13.85a22.24,22.24,0,0,1,11.31,2.83,19,19,0,0,1,7.59,8,26.21,26.21,0,0,1,2.72,12V33a26.31,26.31,0,0,1-2.68,12.15,18.76,18.76,0,0,1-7.65,8A23.65,23.65,0,0,1,99.94,56Zm6.47-43.74V50.75h6.8q7.49,0,11.64-4.66t4.16-13.24V30q0-8.35-3.93-13t-11.13-4.7Z"/><path d="M159.31,33.37H138.06V50.75h24.68V56H131.59V7h30.82v5.29H138.06V28.08h21.25Z"/><path d="M208.47,56H202L177.29,18.25V56h-6.5V7h6.5L202,45V7h6.43Z"/><path d="M253.84,12.29H238.08V56h-6.44V12.29H215.92V7h37.92Z"/><path d="M285.53,43.2H265L260.37,56H253.7L272.43,7h5.65l18.76,49h-6.63Zm-18.59-5.29h16.67L275.25,15Z"/><path d="M309.94,50.75h23.24V56H303.44V7h6.5Z"/><path d="M378.24,56h-6.5L347.05,18.25V56h-6.5V7h6.5L371.8,45V7h6.44Z"/><path d="M416.79,43.2H396.25L391.64,56H385L403.69,7h5.66l18.76,49h-6.64Zm-18.58-5.29h16.66L406.52,15Z"/><path d="M98.83,116l-6,6.23v16.56H86.36v-49h6.47V114l21.79-24.25h7.81l-19.29,21.66L124,138.79H116.2Z"/><path d="M136.1,133.51h23.24v5.28H129.6v-49h6.5Z"/><path d="M173.65,138.79h-6.46v-49h6.46Z"/><path d="M223.16,138.79h-6.5L192,101v37.78h-6.5v-49H192l24.75,38v-38h6.44Z"/><path d="M241.58,138.79h-6.47v-49h6.47Z"/><path d="M265.86,116l-6,6.23v16.56H253.4v-49h6.46V114l21.79-24.25h7.82l-19.3,21.66L291,138.79h-7.74Z"/><path d="M323.71,126H303.17l-4.61,12.83h-6.67l18.72-49h5.66l18.76,49h-6.64Zm-18.59-5.28h16.67l-8.35-22.94Z"/></g></g></svg>